<svg xmlns="http://www.w3.org/2000/svg" width="960" height="600" viewBox="0 0 960 600">
  <rect width="960" height="600" fill="#0a1220"/>
  <defs>
    <radialGradient id="glow" cx="72%" cy="24%" r="65%">
      <stop offset="0" stop-color="#b6d7f7" stop-opacity="0.55"/>
      <stop offset="0.48" stop-color="#31516d" stop-opacity="0.22"/>
      <stop offset="1" stop-color="#0a1220" stop-opacity="0"/>
    </radialGradient>
    <linearGradient id="stripe" x1="0" y1="0" x2="1" y2="1">
      <stop offset="0" stop-color="#31516d" stop-opacity="0.0"/>
      <stop offset="0.5" stop-color="#b6d7f7" stop-opacity="0.18"/>
      <stop offset="1" stop-color="#31516d" stop-opacity="0.0"/>
    </linearGradient>
  </defs>
  <rect width="960" height="600" fill="url(#glow)"/>
  <g opacity="0.72">
    <path d="M-77 444 C 173 288, 336 552, 557 348 S 883 336, 1075 204 L 1075 600 L -77 600 Z" fill="#17243c"/>
    <path d="M0 492 C 192 372, 403 480, 595 408 S 826 300, 960 372 L 960 600 L 0 600 Z" fill="#31516d" opacity="0.62"/>
  </g>
  <g fill="none" stroke="#b6d7f7" stroke-opacity="0.28" stroke-width="2">
    <path d="M 77 96 H 422 V 288 H 173"/>
    <path d="M 576 108 h 230 v 204"/>
    <circle cx="710" cy="168" r="54"/>
  </g>
  <g opacity="0.78">
    <circle cx="213" cy="189" r="36" fill="#b6d7f7" opacity="0.26"/>
    <rect x="643" y="336" width="192" height="72" rx="22" fill="#b6d7f7" opacity="0.22"/>
    <rect x="115" y="366" width="144" height="30" rx="12" fill="#b6d7f7" opacity="0.34"/>
  </g>
  <rect x="0" y="0" width="960" height="600" fill="url(#stripe)"/>
  <g opacity="0.28" stroke="#fff" stroke-width="1">
    <line x1="0" y1="0" x2="0" y2="600"/><line x1="80" y1="0" x2="80" y2="600"/><line x1="160" y1="0" x2="160" y2="600"/><line x1="240" y1="0" x2="240" y2="600"/><line x1="320" y1="0" x2="320" y2="600"/><line x1="400" y1="0" x2="400" y2="600"/><line x1="480" y1="0" x2="480" y2="600"/><line x1="560" y1="0" x2="560" y2="600"/><line x1="640" y1="0" x2="640" y2="600"/><line x1="720" y1="0" x2="720" y2="600"/><line x1="800" y1="0" x2="800" y2="600"/><line x1="880" y1="0" x2="880" y2="600"/>
    <line x1="0" y1="0" x2="960" y2="0"/><line x1="0" y1="80" x2="960" y2="80"/><line x1="0" y1="160" x2="960" y2="160"/><line x1="0" y1="240" x2="960" y2="240"/><line x1="0" y1="320" x2="960" y2="320"/><line x1="0" y1="400" x2="960" y2="400"/><line x1="0" y1="480" x2="960" y2="480"/><line x1="0" y1="560" x2="960" y2="560"/>
  </g>
  <text x="928" y="574" text-anchor="end" fill="#ffffff" opacity="0.32" font-family="Inter, Arial" font-size="22" font-weight="900">PF</text>
  <title>Neon Babushka artwork</title>
</svg>