<svg xmlns="http://www.w3.org/2000/svg" width="1600" height="620" viewBox="0 0 1600 620">
  <rect width="1600" height="620" fill="#080e17"/>
  <defs>
    <radialGradient id="glow" cx="72%" cy="24%" r="65%">
      <stop offset="0" stop-color="#e9a85f" stop-opacity="0.55"/>
      <stop offset="0.48" stop-color="#374d8a" stop-opacity="0.22"/>
      <stop offset="1" stop-color="#080e17" stop-opacity="0"/>
    </radialGradient>
    <linearGradient id="stripe" x1="0" y1="0" x2="1" y2="1">
      <stop offset="0" stop-color="#374d8a" stop-opacity="0.0"/>
      <stop offset="0.5" stop-color="#e9a85f" stop-opacity="0.18"/>
      <stop offset="1" stop-color="#374d8a" stop-opacity="0.0"/>
    </linearGradient>
  </defs>
  <rect width="1600" height="620" fill="url(#glow)"/>
  <g opacity="0.72">
    <path d="M-128 459 C 288 298, 560 570, 928 360 S 1472 347, 1792 211 L 1792 620 L -128 620 Z" fill="#121b2c"/>
    <path d="M0 508 C 320 384, 672 496, 992 422 S 1376 310, 1600 384 L 1600 620 L 0 620 Z" fill="#374d8a" opacity="0.62"/>
  </g>
  <g fill="none" stroke="#e9a85f" stroke-opacity="0.28" stroke-width="2">
    <path d="M 128 99 H 704 V 298 H 288"/>
    <path d="M 960 112 h 384 v 211"/>
    <circle cx="1184" cy="174" r="56"/>
  </g>
  <g opacity="0.78">
    <circle cx="425" cy="231" r="37" fill="#e9a85f" opacity="0.26"/>
    <rect x="1072" y="347" width="320" height="74" rx="22" fill="#e9a85f" opacity="0.22"/>
    <rect x="192" y="378" width="240" height="31" rx="12" fill="#e9a85f" opacity="0.34"/>
  </g>
  <rect x="0" y="0" width="1600" height="620" fill="url(#stripe)"/>
  <g opacity="0.28" stroke="#fff" stroke-width="1">
    <line x1="0" y1="0" x2="0" y2="620"/><line x1="80" y1="0" x2="80" y2="620"/><line x1="160" y1="0" x2="160" y2="620"/><line x1="240" y1="0" x2="240" y2="620"/><line x1="320" y1="0" x2="320" y2="620"/><line x1="400" y1="0" x2="400" y2="620"/><line x1="480" y1="0" x2="480" y2="620"/><line x1="560" y1="0" x2="560" y2="620"/><line x1="640" y1="0" x2="640" y2="620"/><line x1="720" y1="0" x2="720" y2="620"/><line x1="800" y1="0" x2="800" y2="620"/><line x1="880" y1="0" x2="880" y2="620"/><line x1="960" y1="0" x2="960" y2="620"/><line x1="1040" y1="0" x2="1040" y2="620"/><line x1="1120" y1="0" x2="1120" y2="620"/><line x1="1200" y1="0" x2="1200" y2="620"/><line x1="1280" y1="0" x2="1280" y2="620"/><line x1="1360" y1="0" x2="1360" y2="620"/><line x1="1440" y1="0" x2="1440" y2="620"/><line x1="1520" y1="0" x2="1520" y2="620"/>
    <line x1="0" y1="0" x2="1600" y2="0"/><line x1="0" y1="80" x2="1600" y2="80"/><line x1="0" y1="160" x2="1600" y2="160"/><line x1="0" y1="240" x2="1600" y2="240"/><line x1="0" y1="320" x2="1600" y2="320"/><line x1="0" y1="400" x2="1600" y2="400"/><line x1="0" y1="480" x2="1600" y2="480"/><line x1="0" y1="560" x2="1600" y2="560"/>
  </g>
  <text x="1568" y="594" text-anchor="end" fill="#ffffff" opacity="0.32" font-family="Inter, Arial" font-size="22" font-weight="900">PF</text>
  <title>Starroot Hamlet artwork</title>
</svg>