<svg xmlns="http://www.w3.org/2000/svg" width="960" height="540" viewBox="0 0 960 540">
  <rect width="960" height="540" fill="#130f08"/>
  <defs>
    <radialGradient id="glow" cx="72%" cy="24%" r="65%">
      <stop offset="0" stop-color="#d8a354" stop-opacity="0.55"/>
      <stop offset="0.48" stop-color="#61472c" stop-opacity="0.22"/>
      <stop offset="1" stop-color="#130f08" stop-opacity="0"/>
    </radialGradient>
    <linearGradient id="stripe" x1="0" y1="0" x2="1" y2="1">
      <stop offset="0" stop-color="#61472c" stop-opacity="0.0"/>
      <stop offset="0.5" stop-color="#d8a354" stop-opacity="0.18"/>
      <stop offset="1" stop-color="#61472c" stop-opacity="0.0"/>
    </linearGradient>
  </defs>
  <rect width="960" height="540" fill="url(#glow)"/>
  <g opacity="0.72">
    <path d="M-77 400 C 173 259, 336 497, 557 313 S 883 302, 1075 184 L 1075 540 L -77 540 Z" fill="#21180d"/>
    <path d="M0 443 C 192 335, 403 432, 595 367 S 826 270, 960 335 L 960 540 L 0 540 Z" fill="#61472c" opacity="0.62"/>
  </g>
  <g fill="none" stroke="#d8a354" stroke-opacity="0.28" stroke-width="2">
    <path d="M 77 86 H 422 V 259 H 173"/>
    <path d="M 576 97 h 230 v 184"/>
    <circle cx="710" cy="151" r="49"/>
  </g>
  <g opacity="0.78">
    <circle cx="276" cy="198" r="32" fill="#d8a354" opacity="0.26"/>
    <rect x="643" y="302" width="192" height="65" rx="22" fill="#d8a354" opacity="0.22"/>
    <rect x="115" y="329" width="144" height="27" rx="12" fill="#d8a354" opacity="0.34"/>
  </g>
  <rect x="0" y="0" width="960" height="540" fill="url(#stripe)"/>
  <g opacity="0.28" stroke="#fff" stroke-width="1">
    <line x1="0" y1="0" x2="0" y2="540"/><line x1="80" y1="0" x2="80" y2="540"/><line x1="160" y1="0" x2="160" y2="540"/><line x1="240" y1="0" x2="240" y2="540"/><line x1="320" y1="0" x2="320" y2="540"/><line x1="400" y1="0" x2="400" y2="540"/><line x1="480" y1="0" x2="480" y2="540"/><line x1="560" y1="0" x2="560" y2="540"/><line x1="640" y1="0" x2="640" y2="540"/><line x1="720" y1="0" x2="720" y2="540"/><line x1="800" y1="0" x2="800" y2="540"/><line x1="880" y1="0" x2="880" y2="540"/>
    <line x1="0" y1="0" x2="960" y2="0"/><line x1="0" y1="80" x2="960" y2="80"/><line x1="0" y1="160" x2="960" y2="160"/><line x1="0" y1="240" x2="960" y2="240"/><line x1="0" y1="320" x2="960" y2="320"/><line x1="0" y1="400" x2="960" y2="400"/><line x1="0" y1="480" x2="960" y2="480"/>
  </g>
  <text x="928" y="514" text-anchor="end" fill="#ffffff" opacity="0.32" font-family="Inter, Arial" font-size="22" font-weight="900">PF</text>
  <title>Cavernkind artwork</title>
</svg>